<svg version="1.1" xmlns="http://www.w3.org/2000/svg" xmlns:xlink="http://www.w3.org/1999/xlink" viewBox="0 0 172 172"><g fill="none" fill-rule="nonzero" stroke="none" stroke-width="1" stroke-linecap="butt" stroke-linejoin="miter" stroke-miterlimit="10" stroke-dasharray="" stroke-dashoffset="0" font-family="none" font-weight="none" font-size="none" text-anchor="none" style="mix-blend-mode: normal"><path d="M0,172v-172h172v172z" fill="none"></path><g fill="#494949"><path d="M156.23333,66.39917c2.83083,-0.17917 5.01667,-2.54417 5.01667,-5.375v-12.64917c0,-6.91583 -5.62583,-12.54167 -12.54167,-12.54167h-30.45833v7.16667c0,2.97417 -2.40083,5.375 -5.375,5.375c-2.97417,0 -5.375,-2.40083 -5.375,-5.375v-7.16667h-84.20833c-6.91583,0 -12.54167,5.62583 -12.54167,12.54167v12.64917c0,2.83083 2.18583,5.19583 5.01667,5.375c10.24833,0.645 18.275,9.28083 18.275,19.60083c0,10.32 -8.02667,18.95583 -18.275,19.60083c-2.83083,0.17917 -5.01667,2.54417 -5.01667,5.375v12.64917c0,6.91583 5.62583,12.54167 12.54167,12.54167h84.20833v-7.16667c0,-2.97417 2.40083,-5.375 5.375,-5.375c2.97417,0 5.375,2.40083 5.375,5.375v7.16667h30.45833c6.91583,0 12.54167,-5.62583 12.54167,-12.54167v-12.64917c0,-2.83083 -2.18583,-5.19583 -5.01667,-5.375c-10.24833,-0.645 -18.275,-9.28083 -18.275,-19.60083c0,-10.32 8.02667,-18.95583 18.275,-19.60083zM118.25,107.5c0,2.97417 -2.40083,5.375 -5.375,5.375c-2.97417,0 -5.375,-2.40083 -5.375,-5.375v-10.75c0,-2.97417 2.40083,-5.375 5.375,-5.375c2.97417,0 5.375,2.40083 5.375,5.375zM118.25,75.25c0,2.97417 -2.40083,5.375 -5.375,5.375c-2.97417,0 -5.375,-2.40083 -5.375,-5.375v-10.75c0,-2.97417 2.40083,-5.375 5.375,-5.375c2.97417,0 5.375,2.40083 5.375,5.375z"></path></g></g></svg>